<svg width="487" height="48" viewBox="0 0 487 48" fill="none" xmlns="http://www.w3.org/2000/svg">
<path d="M10.872 3.736C15.256 3.736 18.664 4.64799 21.096 6.47199C23.528 8.29599 24.744 11 24.744 14.584C24.744 18.328 23.544 21.16 21.144 23.08C18.776 24.968 15.592 25.912 11.592 25.912H7.992V37H0.119995V3.736H10.872ZM10.92 20.248C12.776 20.248 14.184 19.816 15.144 18.952C16.136 18.056 16.632 16.6 16.632 14.584C16.632 11.096 14.68 9.35199 10.776 9.35199H7.992V20.248H10.92Z" fill="#141414"/>
<path d="M49.5281 23.752C49.5281 24.808 49.4801 25.72 49.3841 26.488H33.5921C33.8481 28.632 34.4561 30.136 35.4161 31C36.3761 31.864 37.7041 32.296 39.4001 32.296C40.4241 32.296 41.4161 32.12 42.3761 31.768C43.3361 31.384 44.3761 30.808 45.4961 30.04L48.6161 34.264C45.6401 36.632 42.3281 37.816 38.6801 37.816C34.5521 37.816 31.3841 36.6 29.1761 34.168C26.9681 31.736 25.8641 28.472 25.8641 24.376C25.8641 21.784 26.3281 19.464 27.2561 17.416C28.1841 15.336 29.5441 13.704 31.3361 12.52C33.1281 11.304 35.2721 10.696 37.7681 10.696C41.4481 10.696 44.3281 11.848 46.4081 14.152C48.4881 16.456 49.5281 19.656 49.5281 23.752ZM42.0881 21.592C42.0241 17.688 40.6481 15.736 37.9601 15.736C36.6481 15.736 35.6241 16.216 34.8881 17.176C34.1841 18.136 33.7521 19.72 33.5921 21.928H42.0881V21.592Z" fill="#141414"/>
<path d="M76.6365 1.38399V37H69.9165L69.5325 34.024C67.7405 36.552 65.3245 37.816 62.2845 37.816C59.1165 37.816 56.7005 36.6 55.0365 34.168C53.4045 31.736 52.5885 28.408 52.5885 24.184C52.5885 21.592 53.0205 19.272 53.8845 17.224C54.7485 15.176 55.9645 13.576 57.5325 12.424C59.1325 11.272 60.9565 10.696 63.0045 10.696C65.4365 10.696 67.4525 11.496 69.0525 13.096V0.567993L76.6365 1.38399ZM64.6365 32.248C66.3965 32.248 67.8685 31.288 69.0525 29.368V18.376C68.4445 17.64 67.8205 17.096 67.1805 16.744C66.5725 16.392 65.8685 16.216 65.0685 16.216C63.6605 16.216 62.5405 16.872 61.7085 18.184C60.8765 19.496 60.4605 21.512 60.4605 24.232C60.4605 27.208 60.8125 29.288 61.5165 30.472C62.2525 31.656 63.2925 32.248 64.6365 32.248Z" fill="#141414"/>
<path d="M96.3937 10.792C97.3217 10.792 98.1697 10.904 98.9377 11.128L97.7377 18.472C96.7777 18.248 96.0097 18.136 95.4337 18.136C93.9297 18.136 92.7777 18.664 91.9777 19.72C91.2097 20.744 90.6017 22.296 90.1537 24.376V37H82.5697V11.512H89.1937L89.8177 16.456C90.3937 14.696 91.2577 13.32 92.4097 12.328C93.5937 11.304 94.9217 10.792 96.3937 10.792Z" fill="#141414"/>
<path d="M111.422 10.696C115.326 10.696 118.382 11.896 120.59 14.296C122.798 16.664 123.902 19.992 123.902 24.28C123.902 27 123.39 29.384 122.366 31.432C121.374 33.448 119.934 35.016 118.046 36.136C116.19 37.256 113.982 37.816 111.422 37.816C107.55 37.816 104.494 36.632 102.254 34.264C100.046 31.864 98.9422 28.52 98.9422 24.232C98.9422 21.512 99.4382 19.144 100.43 17.128C101.454 15.08 102.894 13.496 104.75 12.376C106.638 11.256 108.862 10.696 111.422 10.696ZM111.422 16.264C109.886 16.264 108.734 16.92 107.966 18.232C107.198 19.512 106.814 21.512 106.814 24.232C106.814 27.016 107.182 29.048 107.918 30.328C108.686 31.608 109.854 32.248 111.422 32.248C112.958 32.248 114.11 31.608 114.878 30.328C115.646 29.016 116.03 27 116.03 24.28C116.03 21.496 115.646 19.464 114.878 18.184C114.142 16.904 112.99 16.264 111.422 16.264Z" fill="#141414"/>
<path d="M157.468 37L155.74 29.848H146.044L144.364 37H136.204L146.236 3.736H155.788L165.82 37H157.468ZM147.388 24.136H154.396L150.892 9.448L147.388 24.136Z" fill="#141414"/>
<path d="M189.621 37H183.045L182.709 33.784C180.853 36.472 178.277 37.816 174.981 37.816C172.645 37.816 170.869 37.112 169.653 35.704C168.469 34.296 167.877 32.328 167.877 29.8V11.512H175.461V28.84C175.461 30.088 175.653 30.968 176.037 31.48C176.453 31.96 177.077 32.2 177.909 32.2C179.509 32.2 180.885 31.208 182.037 29.224V11.512H189.621V37Z" fill="#141414"/>
<path d="M219.057 13C217.393 13.672 214.945 14.008 211.713 14.008C213.377 14.712 214.593 15.576 215.361 16.6C216.129 17.624 216.513 18.952 216.513 20.584C216.513 22.216 216.081 23.688 215.217 25C214.353 26.28 213.105 27.288 211.473 28.024C209.873 28.76 207.985 29.128 205.809 29.128C204.785 29.128 203.809 29.032 202.881 28.84C202.625 28.968 202.417 29.176 202.257 29.464C202.129 29.72 202.065 29.992 202.065 30.28C202.065 30.76 202.241 31.144 202.593 31.432C202.977 31.688 203.729 31.816 204.849 31.816H208.689C210.641 31.816 212.353 32.136 213.825 32.776C215.297 33.416 216.433 34.296 217.233 35.416C218.033 36.536 218.433 37.8 218.433 39.208C218.433 41.864 217.281 43.928 214.977 45.4C212.705 46.904 209.409 47.656 205.089 47.656C201.985 47.656 199.537 47.32 197.745 46.648C195.953 46.008 194.689 45.096 193.953 43.912C193.249 42.728 192.897 41.24 192.897 39.448H199.713C199.713 40.216 199.857 40.824 200.145 41.272C200.465 41.72 201.025 42.056 201.825 42.28C202.625 42.504 203.777 42.616 205.281 42.616C207.361 42.616 208.801 42.36 209.601 41.848C210.401 41.368 210.801 40.664 210.801 39.736C210.801 38.968 210.497 38.36 209.889 37.912C209.281 37.464 208.369 37.24 207.153 37.24H203.457C200.833 37.24 198.865 36.776 197.553 35.848C196.273 34.888 195.633 33.672 195.633 32.2C195.633 31.272 195.905 30.376 196.449 29.512C196.993 28.616 197.729 27.88 198.657 27.304C197.057 26.44 195.889 25.432 195.153 24.28C194.449 23.096 194.097 21.672 194.097 20.008C194.097 17.16 195.121 14.904 197.169 13.24C199.217 11.544 201.921 10.696 205.281 10.696C207.841 10.76 210.001 10.504 211.761 9.928C213.553 9.352 215.393 8.50399 217.281 7.38399L219.057 13ZM205.473 15.688C204.289 15.688 203.345 16.072 202.641 16.84C201.969 17.576 201.633 18.6 201.633 19.912C201.633 21.288 201.969 22.36 202.641 23.128C203.345 23.864 204.289 24.232 205.473 24.232C206.721 24.232 207.665 23.864 208.305 23.128C208.977 22.392 209.313 21.288 209.313 19.816C209.313 17.064 208.033 15.688 205.473 15.688Z" fill="#141414"/>
<path d="M243.058 37H236.482L236.146 33.784C234.29 36.472 231.714 37.816 228.418 37.816C226.082 37.816 224.306 37.112 223.09 35.704C221.906 34.296 221.314 32.328 221.314 29.8V11.512H228.898V28.84C228.898 30.088 229.09 30.968 229.474 31.48C229.89 31.96 230.514 32.2 231.346 32.2C232.946 32.2 234.322 31.208 235.474 29.224V11.512H243.058V37Z" fill="#141414"/>
<path d="M257.999 10.696C259.823 10.696 261.535 10.968 263.135 11.512C264.735 12.056 266.143 12.824 267.359 13.816L264.575 18.088C262.495 16.776 260.399 16.12 258.287 16.12C257.295 16.12 256.527 16.296 255.983 16.648C255.471 16.968 255.215 17.432 255.215 18.04C255.215 18.52 255.327 18.92 255.551 19.24C255.807 19.528 256.303 19.832 257.039 20.152C257.775 20.472 258.911 20.856 260.447 21.304C263.103 22.072 265.071 23.08 266.351 24.328C267.663 25.544 268.319 27.24 268.319 29.416C268.319 31.144 267.823 32.648 266.831 33.928C265.839 35.176 264.479 36.136 262.751 36.808C261.023 37.48 259.103 37.816 256.991 37.816C254.847 37.816 252.847 37.48 250.991 36.808C249.167 36.136 247.615 35.208 246.335 34.024L250.031 29.896C252.175 31.56 254.431 32.392 256.799 32.392C257.951 32.392 258.847 32.184 259.487 31.768C260.159 31.352 260.495 30.76 260.495 29.992C260.495 29.384 260.367 28.904 260.111 28.552C259.855 28.2 259.359 27.88 258.623 27.592C257.887 27.272 256.719 26.888 255.119 26.44C252.591 25.704 250.703 24.68 249.455 23.368C248.207 22.056 247.583 20.424 247.583 18.472C247.583 17 247.999 15.688 248.831 14.536C249.695 13.352 250.911 12.424 252.479 11.752C254.079 11.048 255.919 10.696 257.999 10.696Z" fill="#141414"/>
<path d="M288.21 35.8C287.282 36.44 286.194 36.936 284.946 37.288C283.73 37.64 282.514 37.816 281.298 37.816C275.73 37.784 272.946 34.712 272.946 28.6V16.792H269.346V11.512H272.946V5.99199L280.53 5.12799V11.512H286.386L285.57 16.792H280.53V28.504C280.53 29.688 280.722 30.536 281.106 31.048C281.49 31.56 282.098 31.816 282.93 31.816C283.794 31.816 284.706 31.544 285.666 31L288.21 35.8Z" fill="#141414"/>
<path d="M300.938 10.696C304.842 10.696 307.898 11.896 310.106 14.296C312.314 16.664 313.418 19.992 313.418 24.28C313.418 27 312.906 29.384 311.882 31.432C310.89 33.448 309.45 35.016 307.562 36.136C305.706 37.256 303.498 37.816 300.938 37.816C297.066 37.816 294.01 36.632 291.77 34.264C289.562 31.864 288.458 28.52 288.458 24.232C288.458 21.512 288.954 19.144 289.946 17.128C290.97 15.08 292.41 13.496 294.266 12.376C296.154 11.256 298.378 10.696 300.938 10.696ZM300.938 16.264C299.402 16.264 298.25 16.92 297.482 18.232C296.714 19.512 296.33 21.512 296.33 24.232C296.33 27.016 296.698 29.048 297.434 30.328C298.202 31.608 299.37 32.248 300.938 32.248C302.474 32.248 303.626 31.608 304.394 30.328C305.162 29.016 305.546 27 305.546 24.28C305.546 21.496 305.162 19.464 304.394 18.184C303.658 16.904 302.506 16.264 300.938 16.264Z" fill="#141414"/>
<path d="M362.488 37H354.76L354.184 23.992C354.024 20.888 353.944 18.12 353.944 15.688C353.944 13.832 353.992 12.072 354.088 10.408L348.952 33.496H341.512L336.04 10.408C336.232 13.192 336.328 15.816 336.328 18.28C336.328 20.136 336.28 22.072 336.184 24.088L335.608 37H327.928L330.424 3.736H340.36L345.352 26.296L350.008 3.736H359.992L362.488 37Z" fill="#141414"/>
<path d="M378.094 10.696C381.998 10.696 385.054 11.896 387.262 14.296C389.47 16.664 390.574 19.992 390.574 24.28C390.574 27 390.062 29.384 389.038 31.432C388.046 33.448 386.606 35.016 384.718 36.136C382.862 37.256 380.654 37.816 378.094 37.816C374.222 37.816 371.166 36.632 368.926 34.264C366.718 31.864 365.614 28.52 365.614 24.232C365.614 21.512 366.11 19.144 367.102 17.128C368.126 15.08 369.566 13.496 371.422 12.376C373.31 11.256 375.534 10.696 378.094 10.696ZM378.094 16.264C376.558 16.264 375.406 16.92 374.638 18.232C373.87 19.512 373.486 21.512 373.486 24.232C373.486 27.016 373.854 29.048 374.59 30.328C375.358 31.608 376.526 32.248 378.094 32.248C379.63 32.248 380.782 31.608 381.55 30.328C382.318 29.016 382.702 27 382.702 24.28C382.702 21.496 382.318 19.464 381.55 18.184C380.814 16.904 379.662 16.264 378.094 16.264Z" fill="#141414"/>
<path d="M410.013 10.696C412.221 10.696 413.949 11.368 415.197 12.712C416.445 14.056 417.069 15.944 417.069 18.376V37H409.485V19.672C409.485 18.392 409.277 17.512 408.861 17.032C408.477 16.52 407.885 16.264 407.085 16.264C405.549 16.264 404.077 17.368 402.669 19.576V37H395.085V11.512H401.709L402.237 14.536C403.325 13.256 404.493 12.296 405.741 11.656C407.021 11.016 408.445 10.696 410.013 10.696Z" fill="#141414"/>
<path d="M438.772 35.8C437.844 36.44 436.756 36.936 435.508 37.288C434.292 37.64 433.077 37.816 431.861 37.816C426.293 37.784 423.508 34.712 423.508 28.6V16.792H419.909V11.512H423.508V5.99199L431.092 5.12799V11.512H436.948L436.133 16.792H431.092V28.504C431.092 29.688 431.284 30.536 431.668 31.048C432.052 31.56 432.66 31.816 433.492 31.816C434.356 31.816 435.268 31.544 436.228 31L438.772 35.8Z" fill="#141414"/>
<path d="M462.684 23.752C462.684 24.808 462.636 25.72 462.54 26.488H446.748C447.004 28.632 447.612 30.136 448.572 31C449.532 31.864 450.86 32.296 452.556 32.296C453.58 32.296 454.572 32.12 455.532 31.768C456.492 31.384 457.532 30.808 458.652 30.04L461.772 34.264C458.796 36.632 455.484 37.816 451.836 37.816C447.708 37.816 444.54 36.6 442.332 34.168C440.124 31.736 439.02 28.472 439.02 24.376C439.02 21.784 439.484 19.464 440.412 17.416C441.34 15.336 442.7 13.704 444.492 12.52C446.284 11.304 448.428 10.696 450.924 10.696C454.604 10.696 457.484 11.848 459.564 14.152C461.644 16.456 462.684 19.656 462.684 23.752ZM455.244 21.592C455.18 17.688 453.804 15.736 451.116 15.736C449.804 15.736 448.78 16.216 448.044 17.176C447.34 18.136 446.908 19.72 446.748 21.928H455.244V21.592Z" fill="#141414"/>
<path d="M475.921 10.696C477.745 10.696 479.457 10.968 481.057 11.512C482.657 12.056 484.065 12.824 485.281 13.816L482.497 18.088C480.417 16.776 478.321 16.12 476.209 16.12C475.217 16.12 474.449 16.296 473.905 16.648C473.393 16.968 473.137 17.432 473.137 18.04C473.137 18.52 473.249 18.92 473.473 19.24C473.729 19.528 474.225 19.832 474.961 20.152C475.697 20.472 476.833 20.856 478.369 21.304C481.025 22.072 482.993 23.08 484.273 24.328C485.585 25.544 486.241 27.24 486.241 29.416C486.241 31.144 485.745 32.648 484.753 33.928C483.761 35.176 482.401 36.136 480.673 36.808C478.945 37.48 477.025 37.816 474.913 37.816C472.769 37.816 470.769 37.48 468.913 36.808C467.089 36.136 465.537 35.208 464.257 34.024L467.953 29.896C470.097 31.56 472.353 32.392 474.721 32.392C475.873 32.392 476.769 32.184 477.409 31.768C478.081 31.352 478.417 30.76 478.417 29.992C478.417 29.384 478.289 28.904 478.033 28.552C477.777 28.2 477.281 27.88 476.545 27.592C475.809 27.272 474.641 26.888 473.041 26.44C470.513 25.704 468.625 24.68 467.377 23.368C466.129 22.056 465.505 20.424 465.505 18.472C465.505 17 465.921 15.688 466.753 14.536C467.617 13.352 468.833 12.424 470.401 11.752C472.001 11.048 473.841 10.696 475.921 10.696Z" fill="#141414"/>
</svg>
